<svg width="25" height="25" viewBox="0 0 25 25" fill="none" xmlns="http://www.w3.org/2000/svg">
<path fill-rule="evenodd" clip-rule="evenodd" d="M5.85 5.81818C5.32533 5.81818 4.9 6.24555 4.9 6.77273V20.1364C4.9 20.6635 5.32533 21.0909 5.85 21.0909H19.15C19.6747 21.0909 20.1 20.6635 20.1 20.1364V6.77273C20.1 6.24555 19.6747 5.81818 19.15 5.81818H5.85ZM3 6.77273C3 5.19118 4.27599 3.90909 5.85 3.90909H19.15C20.724 3.90909 22 5.19118 22 6.77273V20.1364C22 21.7179 20.724 23 19.15 23H5.85C4.27599 23 3 21.7179 3 20.1364V6.77273Z" fill="white"/>
<path fill-rule="evenodd" clip-rule="evenodd" d="M16.3 2C16.8247 2 17.25 2.42736 17.25 2.95455V6.77273C17.25 7.29991 16.8247 7.72727 16.3 7.72727C15.7753 7.72727 15.35 7.29991 15.35 6.77273V2.95455C15.35 2.42736 15.7753 2 16.3 2Z" fill="white"/>
<path fill-rule="evenodd" clip-rule="evenodd" d="M8.7 2C9.22467 2 9.65 2.42736 9.65 2.95455V6.77273C9.65 7.29991 9.22467 7.72727 8.7 7.72727C8.17533 7.72727 7.75 7.29991 7.75 6.77273V2.95455C7.75 2.42736 8.17533 2 8.7 2Z" fill="white"/>
<path fill-rule="evenodd" clip-rule="evenodd" d="M3 10.5909C3 10.0637 3.42533 9.63636 3.95 9.63636H21.05C21.5747 9.63636 22 10.0637 22 10.5909C22 11.1181 21.5747 11.5455 21.05 11.5455H3.95C3.42533 11.5455 3 11.1181 3 10.5909Z" fill="white"/>
</svg>
