<svg width="25" height="25" viewBox="0 0 25 25" fill="none" xmlns="http://www.w3.org/2000/svg">
<path d="M2.5 13.75C2.5 13.4185 2.6317 13.1005 2.86612 12.8661C3.10054 12.6317 3.41848 12.5 3.75 12.5H6.25C6.58152 12.5 6.89946 12.6317 7.13388 12.8661C7.3683 13.1005 7.5 13.4185 7.5 13.75V20C7.5 20.3315 7.3683 20.6495 7.13388 20.8839C6.89946 21.1183 6.58152 21.25 6.25 21.25H3.75C3.41848 21.25 3.10054 21.1183 2.86612 20.8839C2.6317 20.6495 2.5 20.3315 2.5 20V13.75ZM10 8.75C10 8.41848 10.1317 8.10054 10.3661 7.86612C10.6005 7.6317 10.9185 7.5 11.25 7.5H13.75C14.0815 7.5 14.3995 7.6317 14.6339 7.86612C14.8683 8.10054 15 8.41848 15 8.75V20C15 20.3315 14.8683 20.6495 14.6339 20.8839C14.3995 21.1183 14.0815 21.25 13.75 21.25H11.25C10.9185 21.25 10.6005 21.1183 10.3661 20.8839C10.1317 20.6495 10 20.3315 10 20V8.75ZM17.5 5C17.5 4.66848 17.6317 4.35054 17.8661 4.11612C18.1005 3.8817 18.4185 3.75 18.75 3.75H21.25C21.5815 3.75 21.8995 3.8817 22.1339 4.11612C22.3683 4.35054 22.5 4.66848 22.5 5V20C22.5 20.3315 22.3683 20.6495 22.1339 20.8839C21.8995 21.1183 21.5815 21.25 21.25 21.25H18.75C18.4185 21.25 18.1005 21.1183 17.8661 20.8839C17.6317 20.6495 17.5 20.3315 17.5 20V5Z" fill="#828282"/>
</svg>
