<svg width="25" height="25" viewBox="0 0 25 25" fill="none" xmlns="http://www.w3.org/2000/svg">
<path fill-rule="evenodd" clip-rule="evenodd" d="M2.5 6.25C2.5 5.58696 2.76339 4.95107 3.23223 4.48223C3.70107 4.01339 4.33696 3.75 5 3.75H20C20.663 3.75 21.2989 4.01339 21.7678 4.48223C22.2366 4.95107 22.5 5.58696 22.5 6.25V8.75C22.5 9.41304 22.2366 10.0489 21.7678 10.5178C21.2989 10.9866 20.663 11.25 20 11.25H5C4.33696 11.25 3.70107 10.9866 3.23223 10.5178C2.76339 10.0489 2.5 9.41304 2.5 8.75V6.25ZM20 7.5C20 7.83152 19.8683 8.14946 19.6339 8.38388C19.3995 8.6183 19.0815 8.75 18.75 8.75C18.4185 8.75 18.1005 8.6183 17.8661 8.38388C17.6317 8.14946 17.5 7.83152 17.5 7.5C17.5 7.16848 17.6317 6.85054 17.8661 6.61612C18.1005 6.3817 18.4185 6.25 18.75 6.25C19.0815 6.25 19.3995 6.3817 19.6339 6.61612C19.8683 6.85054 20 7.16848 20 7.5ZM2.5 16.25C2.5 15.587 2.76339 14.9511 3.23223 14.4822C3.70107 14.0134 4.33696 13.75 5 13.75H20C20.663 13.75 21.2989 14.0134 21.7678 14.4822C22.2366 14.9511 22.5 15.587 22.5 16.25V18.75C22.5 19.413 22.2366 20.0489 21.7678 20.5178C21.2989 20.9866 20.663 21.25 20 21.25H5C4.33696 21.25 3.70107 20.9866 3.23223 20.5178C2.76339 20.0489 2.5 19.413 2.5 18.75V16.25ZM20 17.5C20 17.8315 19.8683 18.1495 19.6339 18.3839C19.3995 18.6183 19.0815 18.75 18.75 18.75C18.4185 18.75 18.1005 18.6183 17.8661 18.3839C17.6317 18.1495 17.5 17.8315 17.5 17.5C17.5 17.1685 17.6317 16.8505 17.8661 16.6161C18.1005 16.3817 18.4185 16.25 18.75 16.25C19.0815 16.25 19.3995 16.3817 19.6339 16.6161C19.8683 16.8505 20 17.1685 20 17.5Z" fill="white"/>
</svg>
