<svg width="25" height="25" viewBox="0 0 25 25" fill="none" xmlns="http://www.w3.org/2000/svg">
<path d="M5 5C4.33696 5 3.70107 5.26339 3.23223 5.73223C2.76339 6.20107 2.5 6.83696 2.5 7.5V8.75H22.5V7.5C22.5 6.83696 22.2366 6.20107 21.7678 5.73223C21.2989 5.26339 20.663 5 20 5H5Z" fill="#828282"/>
<path fill-rule="evenodd" clip-rule="evenodd" d="M22.5 11.25H2.5V17.5C2.5 18.163 2.76339 18.7989 3.23223 19.2678C3.70107 19.7366 4.33696 20 5 20H20C20.663 20 21.2989 19.7366 21.7678 19.2678C22.2366 18.7989 22.5 18.163 22.5 17.5V11.25ZM5 16.25C5 15.9185 5.1317 15.6005 5.36612 15.3661C5.60054 15.1317 5.91848 15 6.25 15H7.5C7.83152 15 8.14946 15.1317 8.38388 15.3661C8.6183 15.6005 8.75 15.9185 8.75 16.25C8.75 16.5815 8.6183 16.8995 8.38388 17.1339C8.14946 17.3683 7.83152 17.5 7.5 17.5H6.25C5.91848 17.5 5.60054 17.3683 5.36612 17.1339C5.1317 16.8995 5 16.5815 5 16.25ZM11.25 15C10.9185 15 10.6005 15.1317 10.3661 15.3661C10.1317 15.6005 10 15.9185 10 16.25C10 16.5815 10.1317 16.8995 10.3661 17.1339C10.6005 17.3683 10.9185 17.5 11.25 17.5H12.5C12.8315 17.5 13.1495 17.3683 13.3839 17.1339C13.6183 16.8995 13.75 16.5815 13.75 16.25C13.75 15.9185 13.6183 15.6005 13.3839 15.3661C13.1495 15.1317 12.8315 15 12.5 15H11.25Z" fill="#828282"/>
</svg>
